<svg width="50" height="50" viewBox="0 0 50 50" fill="none" xmlns="http://www.w3.org/2000/svg">
<path d="M24.9998 4.1665C13.7061 4.1665 4.1665 13.7061 4.1665 24.9998C4.1665 36.2936 13.7061 45.8332 24.9998 45.8332C36.2936 45.8332 45.8332 36.2936 45.8332 24.9998C45.8332 13.7061 36.2936 4.1665 24.9998 4.1665Z" fill="#2F3912"/>
<g clip-path="url(#clip0_21110_4216)">
<path d="M28.6053 10.0586C28.8976 10.1712 29.1865 10.1902 29.4593 10.2854C30.9047 10.7898 31.8376 11.8013 32.3683 13.2037C32.5044 13.5633 32.5656 13.9541 32.5899 14.3432C32.6018 14.5342 32.6859 14.5778 32.878 14.5764C34.3714 14.5654 35.8648 14.5702 37.3582 14.5704C37.8861 14.5704 38.2307 14.9217 38.2446 15.4425C38.2663 16.2595 37.9592 16.9556 37.4112 17.5241C36.8894 18.0654 36.2088 18.3708 35.4546 18.372C28.5634 18.3837 21.6721 18.3926 14.7809 18.3671C13.4451 18.3621 12.3984 17.4626 12.0483 16.1655C11.9684 15.8693 11.9837 15.5709 11.9971 15.2746C12.0137 14.908 12.4148 14.5712 12.804 14.5709C14.317 14.5695 15.8299 14.5672 17.3428 14.5741C17.5382 14.575 17.6039 14.5523 17.6285 14.3192C17.7414 13.2489 18.1245 12.2963 18.8889 11.5014C19.6068 10.7549 20.4608 10.2955 21.4767 10.0808C23.8488 10.0586 26.2133 10.0586 28.6053 10.0586Z" fill="#D5E4AD"/>
<path d="M18.5236 40.0584C18.4961 38.5261 18.502 36.9938 18.4942 35.4615C18.4885 34.3556 19.3254 33.4943 20.4652 33.4951C23.5493 33.4975 26.6334 33.4923 29.7175 33.4977C30.962 33.4999 31.7234 34.3399 31.7348 35.5238C31.7493 37.0169 31.7383 38.5102 31.7383 40.031C27.3426 40.0584 22.9468 40.0584 18.5236 40.0584Z" fill="#D5E4AD"/>
<path d="M13.4846 40.0588C13.094 39.8021 12.9006 39.4891 12.9186 39.0064C12.9559 38.0122 12.9125 37.0153 12.9337 36.0202C12.97 34.3149 13.5249 32.7853 14.52 31.4006C15.1489 30.5253 15.9232 29.816 16.8177 29.2298C17.6364 28.6933 18.5397 28.3522 19.4828 28.1094C19.6056 28.0779 19.6727 28.1111 19.6718 28.2681C19.665 29.4296 19.6628 30.5911 19.6742 31.7525C19.6758 31.9155 19.5817 31.9198 19.4885 31.9426C18.773 32.1177 18.1734 32.4931 17.6981 33.0434C17.2479 33.5647 16.9196 34.166 16.8597 34.8661C16.7136 36.5764 16.8336 38.2914 16.797 40.0313C15.7021 40.0588 14.6071 40.0588 13.4846 40.0588Z" fill="#D5E4AD"/>
<path d="M33.4648 40.0588C33.4373 38.5851 33.4453 37.1112 33.4342 35.6375C33.428 34.8086 33.2513 34.0307 32.7417 33.3399C32.239 32.6585 31.6213 32.1714 30.7908 31.9686C30.6392 31.9316 30.5558 31.8584 30.5587 31.6598C30.5745 30.5571 30.5691 29.4541 30.5637 28.3512C30.5627 28.1412 30.5725 28.0811 30.8335 28.1447C32.3022 28.5024 33.5727 29.1974 34.6683 30.2384C35.3425 30.8789 35.8842 31.6036 36.332 32.4187C36.8067 33.2826 37.0684 34.2069 37.2396 35.162C37.3511 35.7842 37.3022 36.4195 37.3041 37.0495C37.3061 37.7425 37.2944 38.4357 37.3082 39.1283C37.317 39.5677 37.1249 39.8535 36.7239 40.0386C35.6431 40.0588 34.5677 40.0588 33.4648 40.0588Z" fill="#D5E4AD"/>
<path d="M31.5051 21.7226C31.2761 23.0087 30.6635 24.0833 29.7773 24.9714C28.7682 25.9824 27.5424 26.6268 26.0976 26.8206C24.7183 27.0057 23.3922 26.8504 22.1542 26.2116C20.6287 25.4245 19.5466 24.2283 18.9589 22.5955C18.6914 21.8525 18.546 21.0967 18.5509 20.308C18.5519 20.1463 18.5656 20.0724 18.7642 20.0728C22.9996 20.0796 27.2349 20.0788 31.4703 20.0747C31.6291 20.0745 31.7022 20.1063 31.681 20.2792C31.6231 20.7519 31.6483 21.2347 31.5051 21.7226Z" fill="#D5E4AD"/>
<path d="M22.188 31.7969C21.8998 31.7779 21.554 31.9093 21.4062 31.7415C21.2791 31.5972 21.3684 31.2593 21.368 31.007C21.3664 30.0606 21.3714 29.1141 21.3643 28.1677C21.3627 27.9441 21.3914 27.8907 21.6393 27.9719C21.9621 28.0776 22.1468 28.3378 22.3899 28.5258C23.361 29.277 24.4639 29.5752 25.6591 29.4396C26.5114 29.3429 27.2915 29.0045 27.9508 28.418C28.1574 28.2343 28.3605 28.0236 28.6468 27.9449C28.8015 27.9024 28.8726 27.9225 28.8713 28.1136C28.8634 29.2747 28.8608 30.4358 28.8732 31.5968C28.8755 31.8117 28.7727 31.7986 28.6276 31.7984C26.4908 31.7963 24.354 31.7969 22.188 31.7969Z" fill="#D5E4AD"/>
</g>
<defs>
<clipPath id="clip0_21110_4216">
<rect width="30" height="30" fill="white" transform="translate(10 10)"/>
</clipPath>
</defs>
</svg>