<?xml version="1.0" standalone="no"?>
<!DOCTYPE svg PUBLIC "-//W3C//DTD SVG 20010904//EN"
 "http://www.w3.org/TR/2001/REC-SVG-20010904/DTD/svg10.dtd">
<svg version="1.0" xmlns="http://www.w3.org/2000/svg"
 width="512.000000pt" height="512.000000pt" viewBox="0 0 512.000000 512.000000"
 preserveAspectRatio="xMidYMid meet">

<g transform="translate(0.000000,512.000000) scale(0.100000,-0.100000)"
fill="#000000" stroke="none">
<path d="M2091 5109 c-147 -29 -277 -103 -378 -213 -47 -51 -80 -104 -142
-226 -45 -87 -81 -161 -81 -164 0 -3 482 -6 1070 -6 589 0 1070 3 1070 6 0 3
-37 79 -82 167 -75 147 -90 170 -163 243 -87 88 -166 138 -280 175 -69 23 -79
23 -520 25 -247 1 -470 -2 -494 -7z"/>
<path d="M1260 4052 l-75 -147 -252 -5 c-234 -5 -254 -6 -280 -26 -88 -65 -79
-192 18 -249 34 -20 52 -20 1889 -20 1837 0 1855 0 1889 20 97 57 106 184 18
249 -26 20 -46 21 -280 26 l-252 5 -75 147 -75 148 -1225 0 -1225 0 -75 -148z"/>
<path d="M1450 3140 c0 -89 5 -204 11 -257 50 -453 371 -827 816 -951 90 -25
112 -27 283 -27 171 0 193 2 283 27 413 116 720 444 802 860 11 54 19 158 22
296 l6 212 -1112 0 -1111 0 0 -160z m1010 -425 c76 -32 125 -32 202 1 69 29
119 28 164 -1 64 -42 84 -141 42 -206 -32 -48 -136 -98 -232 -112 -149 -22
-330 31 -383 112 -48 71 -20 175 57 213 47 24 80 23 150 -7z"/>
<path d="M1735 1651 l-70 -16 -3 -533 -2 -532 900 0 900 0 0 530 0 529 -37 10
c-21 5 -54 13 -74 16 l-36 7 -6 -134 c-8 -184 -40 -290 -125 -415 -211 -309
-611 -419 -947 -259 -150 71 -271 191 -344 340 -55 112 -73 189 -80 342 l-6
131 -70 -16z"/>
<path d="M2110 1572 c1 -157 33 -250 120 -344 176 -192 460 -198 645 -13 98
97 135 198 135 365 l0 89 -67 -20 c-228 -66 -538 -66 -765 0 l-68 20 0 -97z"/>
<path d="M1255 1499 c-314 -162 -538 -436 -636 -779 -26 -89 -92 -546 -86
-592 6 -48 38 -91 81 -112 29 -14 82 -16 390 -16 l356 0 0 770 c0 609 -3 770
-12 770 -7 0 -49 -19 -93 -41z"/>
<path d="M3760 770 l0 -770 356 0 c308 0 361 2 390 16 43 21 75 64 81 112 6
45 -61 505 -86 594 -97 338 -320 612 -634 777 -43 23 -84 41 -92 41 -13 0 -15
-103 -15 -770z"/>
<path d="M1660 135 l0 -135 900 0 900 0 0 135 0 135 -900 0 -900 0 0 -135z"/>
</g>
</svg>
