<svg width="1253" height="800" viewBox="0 0 1253 800" fill="none" xmlns="http://www.w3.org/2000/svg">
<path d="M687 556.4C693.144 556.4 698.605 557.552 703.384 559.856C708.163 562.16 712.173 565.403 715.416 569.584C718.744 573.68 721.219 578.459 722.84 583.92C724.547 589.296 725.4 595.056 725.4 601.2C725.4 609.477 723.907 617.029 720.92 623.856C717.933 630.597 713.581 635.973 707.864 639.984C702.232 643.995 695.277 646 687 646H656.408C654.189 646 652.312 645.275 650.776 643.824C649.325 642.288 648.6 640.411 648.6 638.192V564.208C648.6 561.989 649.325 560.155 650.776 558.704C652.312 557.168 654.189 556.4 656.408 556.4H687ZM685.72 631.28C691.096 631.28 695.491 629.915 698.904 627.184C702.317 624.368 704.792 620.699 706.328 616.176C707.949 611.568 708.76 606.576 708.76 601.2C708.76 597.189 708.291 593.392 707.352 589.808C706.499 586.139 705.133 582.939 703.256 580.208C701.379 577.392 698.989 575.173 696.088 573.552C693.187 571.931 689.731 571.12 685.72 571.12H663.32L664.6 569.968V632.688L663.832 631.28H685.72ZM792.964 576.24C795.183 576.24 797.017 576.965 798.468 578.416C799.919 579.867 800.644 581.744 800.644 584.048V638.192C800.644 640.411 799.919 642.288 798.468 643.824C797.017 645.275 795.183 646 792.964 646C790.745 646 788.911 645.275 787.46 643.824C786.009 642.288 785.284 640.411 785.284 638.192V631.92L788.1 633.072C788.1 634.181 787.503 635.547 786.308 637.168C785.113 638.704 783.492 640.24 781.444 641.776C779.396 643.312 776.964 644.635 774.148 645.744C771.417 646.768 768.431 647.28 765.188 647.28C759.3 647.28 753.967 645.787 749.188 642.8C744.409 639.728 740.612 635.547 737.796 630.256C735.065 624.88 733.7 618.736 733.7 611.824C733.7 604.827 735.065 598.683 737.796 593.392C740.612 588.016 744.367 583.835 749.06 580.848C753.753 577.776 758.959 576.24 764.676 576.24C768.345 576.24 771.716 576.795 774.788 577.904C777.86 579.013 780.505 580.421 782.724 582.128C785.028 583.835 786.777 585.584 787.972 587.376C789.252 589.083 789.892 590.533 789.892 591.728L785.284 593.392V584.048C785.284 581.829 786.009 579.995 787.46 578.544C788.911 577.008 790.745 576.24 792.964 576.24ZM767.108 633.2C770.863 633.2 774.148 632.261 776.964 630.384C779.78 628.507 781.956 625.947 783.492 622.704C785.113 619.461 785.924 615.835 785.924 611.824C785.924 607.728 785.113 604.059 783.492 600.816C781.956 597.573 779.78 595.013 776.964 593.136C774.148 591.259 770.863 590.32 767.108 590.32C763.439 590.32 760.196 591.259 757.38 593.136C754.564 595.013 752.345 597.573 750.724 600.816C749.188 604.059 748.42 607.728 748.42 611.824C748.42 615.835 749.188 619.461 750.724 622.704C752.345 625.947 754.564 628.507 757.38 630.384C760.196 632.261 763.439 633.2 767.108 633.2ZM880.926 646C878.537 646 876.574 645.275 875.038 643.824C873.502 642.288 872.734 640.411 872.734 638.192V563.952H889.374V638.192C889.374 640.411 888.563 642.288 886.942 643.824C885.406 645.275 883.401 646 880.926 646ZM852.638 571.12C850.419 571.12 848.542 570.437 847.006 569.072C845.555 567.707 844.83 565.915 844.83 563.696C844.83 561.477 845.555 559.728 847.006 558.448C848.542 557.083 850.419 556.4 852.638 556.4H909.47C911.689 556.4 913.523 557.083 914.974 558.448C916.51 559.813 917.278 561.605 917.278 563.824C917.278 566.043 916.51 567.835 914.974 569.2C913.523 570.48 911.689 571.12 909.47 571.12H852.638ZM944.396 647.28C937.143 647.28 930.828 645.787 925.452 642.8C920.161 639.728 916.065 635.589 913.164 630.384C910.348 625.179 908.94 619.291 908.94 612.72C908.94 605.04 910.476 598.512 913.548 593.136C916.705 587.675 920.801 583.493 925.836 580.592C930.871 577.691 936.204 576.24 941.836 576.24C946.188 576.24 950.284 577.136 954.124 578.928C958.049 580.72 961.505 583.195 964.492 586.352C967.479 589.424 969.825 593.008 971.532 597.104C973.324 601.2 974.22 605.552 974.22 610.16C974.135 612.208 973.324 613.872 971.788 615.152C970.252 616.432 968.46 617.072 966.412 617.072H917.516L913.676 604.272H960.652L957.836 606.832V603.376C957.665 600.901 956.769 598.683 955.148 596.72C953.612 594.757 951.649 593.221 949.26 592.112C946.956 590.917 944.481 590.32 941.836 590.32C939.276 590.32 936.887 590.661 934.668 591.344C932.449 592.027 930.529 593.179 928.908 594.8C927.287 596.421 926.007 598.597 925.068 601.328C924.129 604.059 923.66 607.515 923.66 611.696C923.66 616.304 924.599 620.229 926.476 623.472C928.439 626.629 930.913 629.061 933.9 630.768C936.972 632.389 940.215 633.2 943.628 633.2C946.785 633.2 949.303 632.944 951.18 632.432C953.057 631.92 954.551 631.323 955.66 630.64C956.855 629.872 957.921 629.232 958.86 628.72C960.396 627.952 961.847 627.568 963.212 627.568C965.089 627.568 966.625 628.208 967.82 629.488C969.1 630.768 969.74 632.261 969.74 633.968C969.74 636.272 968.545 638.363 966.156 640.24C963.937 642.117 960.823 643.781 956.812 645.232C952.801 646.597 948.663 647.28 944.396 647.28ZM993.4 646C991.181 646 989.347 645.275 987.896 643.824C986.445 642.288 985.72 640.411 985.72 638.192V585.328C985.72 583.109 986.445 581.275 987.896 579.824C989.347 578.288 991.181 577.52 993.4 577.52C995.619 577.52 997.453 578.288 998.904 579.824C1000.35 581.275 1001.08 583.109 1001.08 585.328V597.36L1000.18 588.784C1001.12 586.736 1002.32 584.944 1003.77 583.408C1005.3 581.787 1007.01 580.464 1008.89 579.44C1010.77 578.331 1012.77 577.52 1014.9 577.008C1017.04 576.496 1019.17 576.24 1021.3 576.24C1023.86 576.24 1026 576.965 1027.7 578.416C1029.5 579.867 1030.39 581.573 1030.39 583.536C1030.39 586.352 1029.67 588.4 1028.22 589.68C1026.77 590.875 1025.19 591.472 1023.48 591.472C1021.86 591.472 1020.37 591.173 1019 590.576C1017.72 589.979 1016.23 589.68 1014.52 589.68C1012.98 589.68 1011.41 590.064 1009.78 590.832C1008.25 591.515 1006.8 592.624 1005.43 594.16C1004.15 595.696 1003.09 597.616 1002.23 599.92C1001.46 602.139 1001.08 604.784 1001.08 607.856V638.192C1001.08 640.411 1000.35 642.288 998.904 643.824C997.453 645.275 995.619 646 993.4 646ZM1046.98 646C1044.76 646 1042.93 645.275 1041.48 643.824C1040.03 642.288 1039.3 640.411 1039.3 638.192V585.328C1039.3 583.109 1040.03 581.275 1041.48 579.824C1042.93 578.288 1044.76 577.52 1046.98 577.52C1049.2 577.52 1051.03 578.288 1052.48 579.824C1053.93 581.275 1054.66 583.109 1054.66 585.328V597.36L1053.76 588.784C1054.7 586.736 1055.9 584.944 1057.35 583.408C1058.88 581.787 1060.59 580.464 1062.47 579.44C1064.35 578.331 1066.35 577.52 1068.48 577.008C1070.62 576.496 1072.75 576.24 1074.88 576.24C1077.44 576.24 1079.58 576.965 1081.28 578.416C1083.08 579.867 1083.97 581.573 1083.97 583.536C1083.97 586.352 1083.25 588.4 1081.8 589.68C1080.35 590.875 1078.77 591.472 1077.06 591.472C1075.44 591.472 1073.95 591.173 1072.58 590.576C1071.3 589.979 1069.81 589.68 1068.1 589.68C1066.56 589.68 1064.99 590.064 1063.36 590.832C1061.83 591.515 1060.38 592.624 1059.01 594.16C1057.73 595.696 1056.67 597.616 1055.81 599.92C1055.04 602.139 1054.66 604.784 1054.66 607.856V638.192C1054.66 640.411 1053.93 642.288 1052.48 643.824C1051.03 645.275 1049.2 646 1046.98 646ZM1147.44 576.24C1149.66 576.24 1151.5 576.965 1152.95 578.416C1154.4 579.867 1155.12 581.744 1155.12 584.048V638.192C1155.12 640.411 1154.4 642.288 1152.95 643.824C1151.5 645.275 1149.66 646 1147.44 646C1145.23 646 1143.39 645.275 1141.94 643.824C1140.49 642.288 1139.76 640.411 1139.76 638.192V631.92L1142.58 633.072C1142.58 634.181 1141.98 635.547 1140.79 637.168C1139.59 638.704 1137.97 640.24 1135.92 641.776C1133.88 643.312 1131.44 644.635 1128.63 645.744C1125.9 646.768 1122.91 647.28 1119.67 647.28C1113.78 647.28 1108.45 645.787 1103.67 642.8C1098.89 639.728 1095.09 635.547 1092.28 630.256C1089.55 624.88 1088.18 618.736 1088.18 611.824C1088.18 604.827 1089.55 598.683 1092.28 593.392C1095.09 588.016 1098.85 583.835 1103.54 580.848C1108.23 577.776 1113.44 576.24 1119.16 576.24C1122.83 576.24 1126.2 576.795 1129.27 577.904C1132.34 579.013 1134.99 580.421 1137.2 582.128C1139.51 583.835 1141.26 585.584 1142.45 587.376C1143.73 589.083 1144.37 590.533 1144.37 591.728L1139.76 593.392V584.048C1139.76 581.829 1140.49 579.995 1141.94 578.544C1143.39 577.008 1145.23 576.24 1147.44 576.24ZM1121.59 633.2C1125.34 633.2 1128.63 632.261 1131.44 630.384C1134.26 628.507 1136.44 625.947 1137.97 622.704C1139.59 619.461 1140.4 615.835 1140.4 611.824C1140.4 607.728 1139.59 604.059 1137.97 600.816C1136.44 597.573 1134.26 595.013 1131.44 593.136C1128.63 591.259 1125.34 590.32 1121.59 590.32C1117.92 590.32 1114.68 591.259 1111.86 593.136C1109.04 595.013 1106.83 597.573 1105.2 600.816C1103.67 604.059 1102.9 607.728 1102.9 611.824C1102.9 615.835 1103.67 619.461 1105.2 622.704C1106.83 625.947 1109.04 628.507 1111.86 630.384C1114.68 632.261 1117.92 633.2 1121.59 633.2Z" fill="#2F3912"/>
<path d="M508.776 701.24C514.749 701.24 520.083 702.776 524.776 705.848C529.555 708.835 533.309 712.973 536.04 718.264C538.856 723.555 540.264 729.699 540.264 736.696C540.264 743.693 538.856 749.88 536.04 755.256C533.309 760.547 529.597 764.728 524.904 767.8C520.296 770.787 515.091 772.28 509.288 772.28C505.875 772.28 502.675 771.725 499.688 770.616C496.701 769.507 494.056 768.099 491.752 766.392C489.533 764.685 487.784 762.979 486.504 761.272C485.309 759.48 484.712 757.987 484.712 756.792L488.68 755.128V788.792C488.68 791.011 487.955 792.845 486.504 794.296C485.053 795.832 483.219 796.6 481 796.6C478.781 796.6 476.947 795.875 475.496 794.424C474.045 792.973 473.32 791.096 473.32 788.792V710.328C473.32 708.109 474.045 706.275 475.496 704.824C476.947 703.288 478.781 702.52 481 702.52C483.219 702.52 485.053 703.288 486.504 704.824C487.955 706.275 488.68 708.109 488.68 710.328V716.6L486.504 715.448C486.504 714.339 487.101 713.016 488.296 711.48C489.491 709.859 491.112 708.28 493.16 706.744C495.208 705.123 497.555 703.8 500.2 702.776C502.931 701.752 505.789 701.24 508.776 701.24ZM506.856 715.32C503.101 715.32 499.816 716.259 497 718.136C494.184 720.013 491.965 722.573 490.344 725.816C488.808 728.973 488.04 732.6 488.04 736.696C488.04 740.707 488.808 744.376 490.344 747.704C491.965 750.947 494.184 753.507 497 755.384C499.816 757.261 503.101 758.2 506.856 758.2C510.611 758.2 513.853 757.261 516.584 755.384C519.4 753.507 521.576 750.947 523.112 747.704C524.733 744.376 525.544 740.707 525.544 736.696C525.544 732.6 524.733 728.973 523.112 725.816C521.576 722.573 519.4 720.013 516.584 718.136C513.853 716.259 510.611 715.32 506.856 715.32ZM559.455 771C557.236 771 555.402 770.275 553.951 768.824C552.5 767.288 551.775 765.411 551.775 763.192V710.328C551.775 708.109 552.5 706.275 553.951 704.824C555.402 703.288 557.236 702.52 559.455 702.52C561.674 702.52 563.508 703.288 564.959 704.824C566.41 706.275 567.135 708.109 567.135 710.328V722.36L566.239 713.784C567.178 711.736 568.372 709.944 569.823 708.408C571.359 706.787 573.066 705.464 574.943 704.44C576.82 703.331 578.826 702.52 580.959 702.008C583.092 701.496 585.226 701.24 587.359 701.24C589.919 701.24 592.052 701.965 593.759 703.416C595.551 704.867 596.447 706.573 596.447 708.536C596.447 711.352 595.722 713.4 594.271 714.68C592.82 715.875 591.242 716.472 589.535 716.472C587.914 716.472 586.42 716.173 585.055 715.576C583.775 714.979 582.282 714.68 580.575 714.68C579.039 714.68 577.46 715.064 575.839 715.832C574.303 716.515 572.852 717.624 571.487 719.16C570.207 720.696 569.14 722.616 568.287 724.92C567.519 727.139 567.135 729.784 567.135 732.856V763.192C567.135 765.411 566.41 767.288 564.959 768.824C563.508 770.275 561.674 771 559.455 771ZM659.919 701.24C662.138 701.24 663.972 701.965 665.423 703.416C666.874 704.867 667.599 706.744 667.599 709.048V763.192C667.599 765.411 666.874 767.288 665.423 768.824C663.972 770.275 662.138 771 659.919 771C657.7 771 655.866 770.275 654.415 768.824C652.964 767.288 652.239 765.411 652.239 763.192V756.92L655.055 758.072C655.055 759.181 654.458 760.547 653.263 762.168C652.068 763.704 650.447 765.24 648.399 766.776C646.351 768.312 643.919 769.635 641.103 770.744C638.372 771.768 635.386 772.28 632.143 772.28C626.255 772.28 620.922 770.787 616.143 767.8C611.364 764.728 607.567 760.547 604.751 755.256C602.02 749.88 600.655 743.736 600.655 736.824C600.655 729.827 602.02 723.683 604.751 718.392C607.567 713.016 611.322 708.835 616.015 705.848C620.708 702.776 625.914 701.24 631.631 701.24C635.3 701.24 638.671 701.795 641.743 702.904C644.815 704.013 647.46 705.421 649.679 707.128C651.983 708.835 653.732 710.584 654.927 712.376C656.207 714.083 656.847 715.533 656.847 716.728L652.239 718.392V709.048C652.239 706.829 652.964 704.995 654.415 703.544C655.866 702.008 657.7 701.24 659.919 701.24ZM634.063 758.2C637.818 758.2 641.103 757.261 643.919 755.384C646.735 753.507 648.911 750.947 650.447 747.704C652.068 744.461 652.879 740.835 652.879 736.824C652.879 732.728 652.068 729.059 650.447 725.816C648.911 722.573 646.735 720.013 643.919 718.136C641.103 716.259 637.818 715.32 634.063 715.32C630.394 715.32 627.151 716.259 624.335 718.136C621.519 720.013 619.3 722.573 617.679 725.816C616.143 729.059 615.375 732.728 615.375 736.824C615.375 740.835 616.143 744.461 617.679 747.704C619.3 750.947 621.519 753.507 624.335 755.384C627.151 757.261 630.394 758.2 634.063 758.2ZM725.609 681.272C726.804 681.272 728.041 681.613 729.321 682.296C730.686 682.893 731.71 683.704 732.393 684.728L763.497 732.6L757.097 732.344L788.969 684.728C790.59 682.424 792.681 681.272 795.241 681.272C797.289 681.272 799.124 681.997 800.745 683.448C802.366 684.899 803.177 686.776 803.177 689.08V763.192C803.177 765.411 802.452 767.288 801.001 768.824C799.55 770.275 797.63 771 795.241 771C792.852 771 790.889 770.275 789.353 768.824C787.902 767.288 787.177 765.411 787.177 763.192V702.904L792.169 704.056L766.057 743.864C765.289 744.803 764.308 745.613 763.113 746.296C762.004 746.979 760.852 747.277 759.657 747.192C758.548 747.277 757.396 746.979 756.201 746.296C755.092 745.613 754.153 744.803 753.385 743.864L728.937 705.208L732.265 698.424V763.192C732.265 765.411 731.582 767.288 730.217 768.824C728.852 770.275 727.06 771 724.841 771C722.708 771 720.958 770.275 719.593 768.824C718.228 767.288 717.545 765.411 717.545 763.192V689.08C717.545 686.947 718.313 685.112 719.849 683.576C721.47 682.04 723.39 681.272 725.609 681.272ZM851.476 772.28C844.223 772.28 837.908 770.787 832.532 767.8C827.241 764.728 823.145 760.589 820.244 755.384C817.428 750.179 816.02 744.291 816.02 737.72C816.02 730.04 817.556 723.512 820.628 718.136C823.785 712.675 827.881 708.493 832.916 705.592C837.951 702.691 843.284 701.24 848.916 701.24C853.268 701.24 857.364 702.136 861.204 703.928C865.129 705.72 868.585 708.195 871.572 711.352C874.559 714.424 876.905 718.008 878.612 722.104C880.404 726.2 881.3 730.552 881.3 735.16C881.215 737.208 880.404 738.872 878.868 740.152C877.332 741.432 875.54 742.072 873.492 742.072H824.596L820.756 729.272H867.732L864.916 731.832V728.376C864.745 725.901 863.849 723.683 862.228 721.72C860.692 719.757 858.729 718.221 856.34 717.112C854.036 715.917 851.561 715.32 848.916 715.32C846.356 715.32 843.967 715.661 841.748 716.344C839.529 717.027 837.609 718.179 835.988 719.8C834.367 721.421 833.087 723.597 832.148 726.328C831.209 729.059 830.74 732.515 830.74 736.696C830.74 741.304 831.679 745.229 833.556 748.472C835.519 751.629 837.993 754.061 840.98 755.768C844.052 757.389 847.295 758.2 850.708 758.2C853.865 758.2 856.383 757.944 858.26 757.432C860.137 756.92 861.631 756.323 862.74 755.64C863.935 754.872 865.001 754.232 865.94 753.72C867.476 752.952 868.927 752.568 870.292 752.568C872.169 752.568 873.705 753.208 874.9 754.488C876.18 755.768 876.82 757.261 876.82 758.968C876.82 761.272 875.625 763.363 873.236 765.24C871.017 767.117 867.903 768.781 863.892 770.232C859.881 771.597 855.743 772.28 851.476 772.28ZM888.832 760.376C887.979 759.181 887.595 757.645 887.68 755.768C887.765 753.891 888.875 752.269 891.008 750.904C892.373 750.051 893.824 749.709 895.36 749.88C896.896 749.965 898.389 750.733 899.84 752.184C902.315 754.659 904.917 756.579 907.648 757.944C910.379 759.309 913.792 759.992 917.888 759.992C919.168 759.907 920.576 759.736 922.112 759.48C923.648 759.139 924.971 758.456 926.08 757.432C927.275 756.323 927.872 754.659 927.872 752.44C927.872 750.563 927.232 749.069 925.952 747.96C924.672 746.851 922.965 745.912 920.832 745.144C918.784 744.376 916.48 743.651 913.92 742.968C911.275 742.2 908.544 741.347 905.728 740.408C902.997 739.469 900.48 738.275 898.176 736.824C895.872 735.288 893.995 733.283 892.544 730.808C891.093 728.333 890.368 725.219 890.368 721.464C890.368 717.197 891.563 713.571 893.952 710.584C896.341 707.597 899.413 705.293 903.168 703.672C907.008 702.051 911.019 701.24 915.2 701.24C917.845 701.24 920.619 701.581 923.52 702.264C926.421 702.861 929.195 703.885 931.84 705.336C934.485 706.701 936.704 708.536 938.496 710.84C939.435 712.12 939.989 713.656 940.16 715.448C940.331 717.24 939.52 718.861 937.728 720.312C936.448 721.336 934.955 721.805 933.248 721.72C931.541 721.549 930.133 720.952 929.024 719.928C927.573 718.051 925.611 716.557 923.136 715.448C920.747 714.339 917.973 713.784 914.816 713.784C913.536 713.784 912.128 713.955 910.592 714.296C909.141 714.552 907.861 715.192 906.752 716.216C905.643 717.155 905.088 718.691 905.088 720.824C905.088 722.787 905.728 724.365 907.008 725.56C908.288 726.669 909.995 727.608 912.128 728.376C914.347 729.059 916.693 729.741 919.168 730.424C921.728 731.107 924.331 731.917 926.976 732.856C929.621 733.795 932.053 735.032 934.272 736.568C936.491 738.104 938.283 740.109 939.648 742.584C941.013 744.973 941.696 748.045 941.696 751.8C941.696 756.152 940.416 759.864 937.856 762.936C935.296 766.008 932.096 768.355 928.256 769.976C924.416 771.512 920.491 772.28 916.48 772.28C911.445 772.28 906.411 771.427 901.376 769.72C896.341 767.928 892.16 764.813 888.832 760.376ZM1009.69 701.24C1011.91 701.24 1013.75 701.965 1015.2 703.416C1016.65 704.867 1017.37 706.744 1017.37 709.048V763.192C1017.37 765.411 1016.65 767.288 1015.2 768.824C1013.75 770.275 1011.91 771 1009.69 771C1007.48 771 1005.64 770.275 1004.19 768.824C1002.74 767.288 1002.01 765.411 1002.01 763.192V756.92L1004.83 758.072C1004.83 759.181 1004.23 760.547 1003.04 762.168C1001.84 763.704 1000.22 765.24 998.174 766.776C996.126 768.312 993.694 769.635 990.878 770.744C988.147 771.768 985.161 772.28 981.918 772.28C976.03 772.28 970.697 770.787 965.918 767.8C961.139 764.728 957.342 760.547 954.526 755.256C951.795 749.88 950.43 743.736 950.43 736.824C950.43 729.827 951.795 723.683 954.526 718.392C957.342 713.016 961.097 708.835 965.79 705.848C970.483 702.776 975.689 701.24 981.406 701.24C985.075 701.24 988.446 701.795 991.518 702.904C994.59 704.013 997.235 705.421 999.454 707.128C1001.76 708.835 1003.51 710.584 1004.7 712.376C1005.98 714.083 1006.62 715.533 1006.62 716.728L1002.01 718.392V709.048C1002.01 706.829 1002.74 704.995 1004.19 703.544C1005.64 702.008 1007.48 701.24 1009.69 701.24ZM983.838 758.2C987.593 758.2 990.878 757.261 993.694 755.384C996.51 753.507 998.686 750.947 1000.22 747.704C1001.84 744.461 1002.65 740.835 1002.65 736.824C1002.65 732.728 1001.84 729.059 1000.22 725.816C998.686 722.573 996.51 720.013 993.694 718.136C990.878 716.259 987.593 715.32 983.838 715.32C980.169 715.32 976.926 716.259 974.11 718.136C971.294 720.013 969.075 722.573 967.454 725.816C965.918 729.059 965.15 732.728 965.15 736.824C965.15 740.835 965.918 744.461 967.454 747.704C969.075 750.947 971.294 753.507 974.11 755.384C976.926 757.261 980.169 758.2 983.838 758.2Z" fill="#2F3912"/>
<g clip-path="url(#clip0_21279_377)">
<mask id="mask0_21279_377" style="mask-type:luminance" maskUnits="userSpaceOnUse" x="0" y="0" width="800" height="800">
<path d="M800 0H0V800H800V0Z" fill="white"/>
</mask>
<g mask="url(#mask0_21279_377)">
<path d="M550.987 205.7C488.263 205.7 432.937 237.336 400 285.475C367.063 237.338 311.764 205.7 249.001 205.7C148.052 205.7 62.527 287.649 66.1896 388.537C72.9276 575.886 308.826 581.524 388.964 785.773C393.001 796.123 396.663 800.298 400 799.986C403.35 800.298 407.026 796.123 411.063 785.773C491.175 581.524 727.062 575.887 733.811 388.537C737.474 287.649 651.987 205.7 550.987 205.7Z" fill="#2C370B"/>
<path d="M400.001 468.173C521.376 468.173 631.776 472.173 714.187 466.586C725.613 444.223 732.712 418.761 733.812 388.535C735.524 341.485 717.7 298.699 688.1 266.299C670.575 261.311 652.037 256.749 632.575 252.699C624.2 251.861 615.738 251.412 607.201 251.412C521.125 251.412 445.201 294.825 400.014 360.874C354.827 294.824 278.939 251.412 192.827 251.412C184.277 251.412 175.816 251.874 167.453 252.699C148.003 256.736 129.465 261.299 111.977 266.274C82.3531 298.699 64.5019 341.485 66.2158 388.535C67.3028 418.759 74.4154 444.223 85.8284 466.586C168.227 472.173 278.614 468.173 400.001 468.173Z" fill="#556526"/>
<path d="M400.001 363.673C558.45 363.673 691.274 373.036 727.112 334.811C712.112 283.561 673.525 241.948 624.237 220.823C607.425 215.461 589.087 210.711 569.487 206.636C563.4 206.024 557.225 205.698 551 205.698C488.276 205.698 432.95 237.335 400.013 285.474C367.075 237.336 311.776 205.698 249.014 205.698C242.801 205.698 236.627 206.036 230.527 206.636C210.965 210.699 192.614 215.448 175.828 220.81C126.527 241.923 87.9272 283.573 72.9023 334.822C108.751 373.036 241.564 363.673 400.001 363.673Z" fill="#8A9A5B"/>
<path d="M399.824 285.474C399.824 285.474 418.261 74.0499 302.312 23.9115C225.187 -9.47543 231.987 88.386 274.962 104.023C274.962 104.023 200.986 50.6112 181.399 98.7612C165.687 137.387 222.224 162.636 265.174 162.636C265.174 162.636 188.737 150.187 188.974 182.187C189.161 205.923 208.499 213.449 278.861 205.611C349.226 197.824 399.824 285.474 399.824 285.474Z" fill="#3D772F"/>
<path d="M302.325 23.9129C276 12.5126 259.45 16.4259 250.8 27.1375C252.437 52.263 312.037 78.3502 347.125 139.587C368.675 177.162 368.012 231.561 380.176 258.225C392.738 273.188 399.837 285.475 399.837 285.475C399.837 285.475 418.263 74.0497 302.325 23.9129Z" fill="#3F993D"/>
<path d="M400.188 285.474C400.188 285.474 381.739 74.0499 497.688 23.9115C574.801 -9.47543 568.014 88.386 525.038 104.023C525.038 104.023 599.014 50.6112 618.588 98.7612C634.313 137.387 577.776 162.636 534.814 162.636C534.814 162.636 611.25 150.187 611.014 182.187C610.827 205.923 591.489 213.449 521.139 205.611C450.776 197.824 400.188 285.474 400.188 285.474Z" fill="#3D772F"/>
<path d="M497.675 23.9129C523.987 12.5126 540.55 16.4259 549.187 27.1375C547.562 52.263 487.963 78.3502 452.875 139.587C431.324 177.162 431.988 231.561 419.813 258.225C407.264 273.188 400.175 285.475 400.175 285.475C400.175 285.475 381.738 74.0497 497.675 23.9129Z" fill="#3F993D"/>
<path d="M400.001 53.3233C414.725 53.3233 426.662 41.3865 426.662 26.6616C426.662 11.9368 414.725 0 400.001 0C385.276 0 373.339 11.9368 373.339 26.6616C373.339 41.3865 385.276 53.3233 400.001 53.3233Z" fill="#3D772F"/>
<path d="M426.662 26.6616C426.662 41.3866 414.725 30.1989 400.001 30.1989C385.276 30.1989 373.339 41.3866 373.339 26.6616C373.339 11.9367 385.276 0 400.001 0C414.725 0 426.662 11.9367 426.662 26.6616Z" fill="#3F993D"/>
<path d="M400.001 96.1491C407.884 96.1491 414.275 89.7583 414.275 81.8748C414.275 73.9914 407.884 67.6006 400.001 67.6006C392.117 67.6006 385.727 73.9914 385.727 81.8748C385.727 89.7583 392.117 96.1491 400.001 96.1491Z" fill="#3D772F"/>
<path d="M414.275 81.824C414.275 89.711 407.888 83.7109 400.001 83.7109C392.114 83.7109 385.727 89.6983 385.727 81.824C385.727 73.9498 392.114 67.5371 400.001 67.5371C407.888 67.5371 414.275 73.9371 414.275 81.824Z" fill="#3F993D"/>
</g>
</g>
<defs>
<clipPath id="clip0_21279_377">
<rect width="800" height="800" fill="white"/>
</clipPath>
</defs>
</svg>
