<svg width="800" height="800" viewBox="0 0 800 800" fill="none" xmlns="http://www.w3.org/2000/svg">
<g clip-path="url(#clip0_21109_2115)">
<path d="M550.987 205.7C488.263 205.7 432.937 237.336 400 285.475C367.063 237.338 311.764 205.7 249.001 205.7C148.052 205.7 62.527 287.649 66.1896 388.537C72.9276 575.886 308.826 581.524 388.964 785.773C393.001 796.123 396.663 800.298 400 799.986C403.35 800.298 407.026 796.123 411.063 785.773C491.175 581.524 727.062 575.887 733.811 388.537C737.474 287.649 651.987 205.7 550.987 205.7Z" fill="#2C370B"/>
<path d="M400.001 468.173C521.376 468.173 631.776 472.173 714.187 466.586C725.613 444.223 732.712 418.761 733.812 388.535C735.524 341.485 717.7 298.699 688.1 266.299C670.575 261.311 652.037 256.749 632.575 252.699C624.2 251.861 615.738 251.412 607.201 251.412C521.125 251.412 445.201 294.825 400.014 360.874C354.827 294.824 278.939 251.412 192.827 251.412C184.277 251.412 175.816 251.874 167.453 252.699C148.003 256.736 129.465 261.299 111.977 266.274C82.3531 298.699 64.5019 341.485 66.2158 388.535C67.3028 418.759 74.4154 444.223 85.8284 466.586C168.227 472.173 278.614 468.173 400.001 468.173Z" fill="#556526"/>
<path d="M400.001 363.673C558.45 363.673 691.274 373.036 727.112 334.811C712.112 283.561 673.525 241.948 624.237 220.823C607.425 215.461 589.087 210.711 569.487 206.636C563.4 206.024 557.225 205.698 551 205.698C488.276 205.698 432.95 237.335 400.013 285.474C367.075 237.336 311.776 205.698 249.014 205.698C242.801 205.698 236.627 206.036 230.527 206.636C210.965 210.699 192.614 215.448 175.828 220.81C126.527 241.923 87.9272 283.573 72.9023 334.822C108.751 373.036 241.564 363.673 400.001 363.673Z" fill="#8A9A5B"/>
<path d="M399.824 285.474C399.824 285.474 418.261 74.0499 302.312 23.9115C225.187 -9.47544 231.987 88.386 274.962 104.023C274.962 104.023 200.986 50.6112 181.399 98.7612C165.687 137.387 222.224 162.636 265.174 162.636C265.174 162.636 188.737 150.187 188.974 182.187C189.161 205.923 208.499 213.449 278.861 205.611C349.226 197.824 399.824 285.474 399.824 285.474Z" fill="#3D772F"/>
<path d="M302.325 23.9129C276 12.5126 259.45 16.4259 250.8 27.1375C252.437 52.263 312.037 78.3502 347.125 139.587C368.675 177.162 368.012 231.561 380.176 258.225C392.738 273.188 399.837 285.475 399.837 285.475C399.837 285.475 418.263 74.0497 302.325 23.9129Z" fill="#3F993D"/>
<path d="M400.188 285.474C400.188 285.474 381.739 74.0499 497.688 23.9115C574.801 -9.47544 568.014 88.386 525.038 104.023C525.038 104.023 599.014 50.6112 618.588 98.7612C634.313 137.387 577.776 162.636 534.814 162.636C534.814 162.636 611.25 150.187 611.014 182.187C610.827 205.923 591.489 213.449 521.139 205.611C450.776 197.824 400.188 285.474 400.188 285.474Z" fill="#3D772F"/>
<path d="M497.675 23.9129C523.987 12.5126 540.55 16.4259 549.187 27.1375C547.562 52.263 487.963 78.3502 452.875 139.587C431.324 177.162 431.988 231.561 419.813 258.225C407.264 273.188 400.175 285.475 400.175 285.475C400.175 285.475 381.738 74.0497 497.675 23.9129Z" fill="#3F993D"/>
<path d="M400.001 53.3233C414.725 53.3233 426.662 41.3865 426.662 26.6616C426.662 11.9368 414.725 0 400.001 0C385.276 0 373.339 11.9368 373.339 26.6616C373.339 41.3865 385.276 53.3233 400.001 53.3233Z" fill="#3D772F"/>
<path d="M426.662 26.6616C426.662 41.3866 414.725 30.1989 400.001 30.1989C385.276 30.1989 373.339 41.3866 373.339 26.6616C373.339 11.9367 385.276 0 400.001 0C414.725 0 426.662 11.9367 426.662 26.6616Z" fill="#3F993D"/>
<path d="M400.001 96.1491C407.884 96.1491 414.275 89.7583 414.275 81.8748C414.275 73.9914 407.884 67.6006 400.001 67.6006C392.117 67.6006 385.727 73.9914 385.727 81.8748C385.727 89.7583 392.117 96.1491 400.001 96.1491Z" fill="#3D772F"/>
<path d="M414.275 81.824C414.275 89.711 407.888 83.7109 400.001 83.7109C392.114 83.7109 385.727 89.6983 385.727 81.824C385.727 73.9498 392.114 67.5371 400.001 67.5371C407.888 67.5371 414.275 73.9371 414.275 81.824Z" fill="#3F993D"/>
</g>
<defs>
<clipPath id="clip0_21109_2115">
<rect width="800" height="800" fill="white"/>
</clipPath>
</defs>
</svg>
